<?xml version="1.0" encoding="UTF-8"?>
<svg width="512" height="512" viewBox="0 0 512 512" fill="none" xmlns="http://www.w3.org/2000/svg">
  <rect width="512" height="512" rx="64" fill="#1890ff"/>
  <path d="M256 128C208.8 128 171 165.8 171 213V299C171 346.2 208.8 384 256 384C303.2 384 341 346.2 341 299V213C341 165.8 303.2 128 256 128ZM256 171C279.2 171 298 189.8 298 213V299C298 322.2 279.2 341 256 341C232.8 341 214 322.2 214 299V213C214 189.8 232.8 171 256 171Z" fill="white"/>
  <circle cx="256" cy="256" r="21" fill="white"/>
</svg>
